<svg width="57" height="56" viewBox="0 0 57 56" fill="none" xmlns="http://www.w3.org/2000/svg">
<rect x="0.250031" width="56" height="56" rx="28" fill="url(#paint0_linear_43_1696)"/>
<path d="M39.9591 32.5054C39.1018 31.4299 38.4423 30.6636 38.4423 28.5966V21.7367C38.4423 18.8429 38.2444 16.134 36.1011 14.151C34.3865 12.5781 31.56 12 29.3296 12C24.6143 12 20.3999 13.9065 19.3718 19.0321C19.2847 19.6134 19.7134 19.8589 20.0584 19.9428L24.5272 20.352C24.9559 20.352 25.2137 19.9386 25.3008 19.5252C25.6424 17.7876 27.1924 16.3274 28.907 16.3274C29.8514 16.3274 31.7115 17.2732 31.7115 19.2563V21.7367C28.9654 21.7367 25.9003 21.9217 23.4991 22.9132C20.6692 24.0727 18.25 26.2947 18.25 29.8506C18.25 34.398 21.7708 36.8827 25.5417 36.8827C28.7165 36.8827 30.4448 36.0614 32.9297 33.6617C33.7033 34.8211 34.181 35.6424 35.6378 36.8827C35.9827 37.0506 36.4114 37.0506 36.6659 36.8019C37.5232 36.0559 39.018 34.4885 39.9591 33.7456C40.3877 33.413 40.304 32.9188 39.9591 32.5054ZM31.7115 26.0641C31.7115 27.7177 31.3858 31.8434 27.1863 31.8434C25.0275 31.8434 24.9808 29.3097 24.9808 29.3097C24.9808 26.0641 28.453 24.9823 31.7115 24.9823V26.0641Z" fill="white"/>
<path d="M41.4428 40.1385C37.8932 42.5338 32.5753 44 28.2669 44C22.1013 44 16.6119 41.7616 12.3893 38.2862C12.0528 37.9755 12.3893 37.6678 12.7291 37.8216C17.2882 40.217 22.4411 41.6047 28.1812 41.6047C32.0673 41.6047 36.9662 40.8324 40.9347 39.2878C41.5252 39.1339 42.0333 39.7524 41.4428 40.1385ZM42.7095 38.5155C42.2873 37.9755 39.7537 38.2862 38.6552 38.3616C38.3154 38.3616 38.2329 38.1294 38.5694 37.9001C40.5125 36.5848 43.8048 36.9709 44.1446 37.4355C44.4811 37.9001 44.0588 40.9108 42.2015 42.3016C41.9475 42.5338 41.611 42.377 41.7793 42.1477C42.2015 41.2185 43.1318 39.0585 42.7095 38.5155Z" fill="#FFB300"/>
<defs>
<linearGradient id="paint0_linear_43_1696" x1="10.6678" y1="9.71163" x2="68.3965" y2="76.0166" gradientUnits="userSpaceOnUse">
<stop stop-color="#1A1E21"/>
<stop offset="1" stop-color="#06060A"/>
</linearGradient>
</defs>
</svg>
