<svg width="57" height="56" viewBox="0 0 57 56" fill="none" xmlns="http://www.w3.org/2000/svg">
<rect x="0.750122" width="56" height="56" rx="28" fill="#00448C"/>
<path fill-rule="evenodd" clip-rule="evenodd" d="M27.1946 43.5556C30.0726 43.5556 32.7478 42.5907 34.9724 40.9361V43.5556H44.3057V12.4445H34.9724V15.0639C32.7478 13.4094 30.0726 12.4445 27.1946 12.4445C19.4626 12.4445 13.1946 19.4089 13.1946 28C13.1946 36.5911 19.4626 43.5556 27.1946 43.5556ZM28.7501 37.3333C32.1866 37.3333 34.9724 33.1547 34.9724 28C34.9724 22.8454 32.1866 18.6667 28.7501 18.6667C25.3137 18.6667 22.5279 22.8454 22.5279 28C22.5279 33.1547 25.3137 37.3333 28.7501 37.3333Z" fill="white"/>
</svg>
