<svg width="57" height="56" viewBox="0 0 57 56" fill="none" xmlns="http://www.w3.org/2000/svg">
<rect x="0.416687" width="56" height="56" rx="28" fill="url(#paint0_linear_43_1744)"/>
<path fill-rule="evenodd" clip-rule="evenodd" d="M41.4167 32.9883C41.2444 33.4731 41.0641 33.9359 40.8723 34.3797C40.4043 35.4284 39.8518 36.3934 39.2116 37.2795C38.3406 38.4893 37.6256 39.3264 37.0747 39.7907C36.2216 40.5535 35.3067 40.9452 34.3268 40.9658C33.6232 40.9658 32.7766 40.7715 31.7886 40.3782C30.7989 39.985 29.8889 39.7907 29.0569 39.7907C28.1843 39.7907 27.2483 39.985 26.2473 40.3782C25.2447 40.7715 24.4371 40.9784 23.8196 40.9973C22.8803 41.0368 21.9443 40.6357 21.0099 39.7907C20.4136 39.2853 19.6677 38.4182 18.7739 37.191C17.8152 35.8801 17.0271 34.3592 16.4096 32.625C15.7482 30.7534 15.4167 28.9403 15.4167 27.1856C15.4167 25.175 15.8636 23.4409 16.7589 21.9878C17.4626 20.8206 18.3986 19.8999 19.5702 19.2239C20.7418 18.5479 22.0077 18.2036 23.3711 18.1815C24.1169 18.1815 25.0952 18.4058 26.3107 18.8464C27.5229 19.2886 28.3013 19.5129 28.6426 19.5129C28.8977 19.5129 29.7622 19.2507 31.2279 18.728C32.6141 18.2431 33.7841 18.0425 34.7428 18.1215C37.3396 18.3252 39.2896 19.3202 40.5879 21.1128C38.2658 22.4806 37.1169 24.3964 37.1397 26.8539C37.1608 28.7681 37.8742 30.3617 39.2782 31.6268C39.9152 32.2128 40.6269 32.6661 41.4167 32.9883ZM34.8842 11C34.9053 11.2006 34.9151 11.4012 34.9151 11.6002C34.9151 13.1006 34.3512 14.5015 33.2283 15.7982C31.8714 17.3397 30.2302 18.2304 28.4508 18.0899C28.4281 17.9098 28.4151 17.7203 28.4151 17.5213C28.4151 16.0809 29.0602 14.5394 30.2058 13.2791C30.7778 12.641 31.5058 12.1103 32.3866 11.687C33.2673 11.2701 34.1009 11.0395 34.8842 11Z" fill="white"/>
<defs>
<linearGradient id="paint0_linear_43_1744" x1="10.8345" y1="9.71163" x2="68.5632" y2="76.0166" gradientUnits="userSpaceOnUse">
<stop stop-color="#1A1E21"/>
<stop offset="1" stop-color="#06060A"/>
</linearGradient>
</defs>
</svg>
