<svg width="57" height="56" viewBox="0 0 57 56" fill="none" xmlns="http://www.w3.org/2000/svg">
<rect x="0.916748" width="56" height="56" rx="28" fill="url(#paint0_linear_43_1895)"/>
<path d="M13.0035 26.3319C13.0035 26.3319 16.6957 21.5333 23.9167 21.0328V19.0375C15.9185 19.6199 8.91675 26 8.91675 26C8.91675 26 12.9152 36.2452 23.9167 37.1867V35.3209C15.8433 34.4 13.0035 26.3319 13.0035 26.3319ZM23.9167 31.6103V33.319C17.815 32.3326 16.0457 26.5813 16.0457 26.5813C16.0457 26.5813 19.051 23.4772 23.9167 23V25.0352C23.9131 25.0352 23.9198 25.0352 23.9167 25.0352C21.3629 24.7574 19.283 26.9206 19.283 26.9206C19.283 26.9206 20.4768 30.5623 23.9167 31.6103ZM23.9167 16V19.0375C24.1515 19.0211 24.3108 19.0073 24.5469 19C33.64 18.7221 39.5648 25.9625 39.5648 25.9625C39.5648 25.9625 32.76 33.4653 25.6705 33.4653C25.0208 33.4653 24.4881 33.4108 23.9167 33.319V35.3209C24.4053 35.3772 24.8363 35.4102 25.3649 35.4102C31.9621 35.4102 36.733 32.3552 41.3527 28.7395C42.1187 29.2957 45.2544 30.6488 45.899 31.2412C41.5065 34.5757 31.2696 37.2637 25.466 37.2637C24.9065 37.2637 24.4448 37.2329 23.9167 37.1867V40H48.9167V16H23.9167ZM23.9167 23V21.0328C24.1491 21.0181 24.3077 21.0068 24.5469 21C31.0857 20.8138 35.3757 26.0553 35.3757 26.0553C35.3757 26.0553 30.8849 32 25.9167 32C25.2018 32 24.4937 31.7862 23.9167 31.6103V25.0352C26.4624 25.3142 26.899 26.3348 28.4294 28.6481L31.8332 26.0457C31.8332 26.0457 29.1053 23 24.9167 23C24.4615 22.9999 24.3446 22.9585 23.9167 23Z" fill="#76B900"/>
<defs>
<linearGradient id="paint0_linear_43_1895" x1="11.3345" y1="9.71163" x2="69.0633" y2="76.0166" gradientUnits="userSpaceOnUse">
<stop stop-color="#1A1E21"/>
<stop offset="1" stop-color="#06060A"/>
</linearGradient>
</defs>
</svg>
