<svg width="56" height="56" viewBox="0 0 56 56" fill="none" xmlns="http://www.w3.org/2000/svg">
<g id="Stock/TESLA-56px">
<rect width="56" height="56" rx="28" fill="#E82127"/>
<path id="vector" fill-rule="evenodd" clip-rule="evenodd" d="M43 19C37.6636 16.6642 32.5542 15.9116 28 15.9466C23.4456 15.9116 18.3354 16.6642 13 19C12.3643 17.8428 12 17 12 17C17.8327 14.6823 23.2953 14.0199 27.9994 14C32.7036 14.0199 38.1666 14.6822 44 17C44 17 43.7132 17.7108 43 19ZM32.5 21L27.9999 46L23.5 21C19.2615 21.003 17.9083 21.0709 17.7128 22.9891C17.7128 22.9891 14.8491 21.9172 13.4066 19.7402C19.0398 17.1184 24.7007 17 24.7007 17L28 21L31.2996 17.0006C31.2996 17.0006 36.9604 17.1189 42.5944 19.7407C41.1506 21.9177 38.2881 22.9896 38.2881 22.9896C38.0938 21.0715 36.7671 21 32.5 21Z" fill="white"/>
</g>
</svg>
